<?xml version="1.0" encoding="UTF-8"?>
<svg viewBox="0 0 640 480" xmlns="http://www.w3.org/2000/svg">
 <g fill="#0c2577">
  <path d="m9.1794 74.58c21.115 0 42.23-16 63.346-16h8.7e-4c21.115 4.92e-4 42.23 16 63.345 16h8.7e-4c21.115-5.04e-4 42.23-16 63.345-16h8.85e-4c21.115 4.92e-4 42.23 16 63.345 16h8.85e-4c21.115-5.04e-4 42.23-16 63.345-16h8.85e-4c21.115 4.92e-4 42.23 16 63.345 16h9.46e-4c21.115-5.04e-4 42.23-16 63.345-16h8.85e-4c21.115 4.92e-4 42.23 16 63.345 16v23.167h-7.93e-4c-21.115-4.27e-4 -42.23-16-63.345-16h-8.85e-4c-21.115 4.27e-4 -42.23 16-63.345 16h-8.85e-4c-21.115-4.27e-4 -42.23-16-63.345-16h-9.46e-4c-21.115 4.27e-4 -42.23 16-63.345 16h-8.85e-4c-21.115-4.27e-4 -42.23-16-63.345-16h-8.7e-4c-21.115 4.27e-4 -42.23 16-63.345 16h-8.85e-4c-21.115-4.27e-4 -42.23-16-63.345-16h-8.93e-4c-21.115 4.27e-4 -42.23 16-63.345 16v-23.167" opacity=".9"/>
  <path d="m9.1794 115.77c21.115 0 42.23-16 63.346-16h7.78e-4c21.115 4.27e-4 42.23 16 63.345 16h7.78e-4c21.115-4.35e-4 42.23-16 63.345-16h7.93e-4c21.115 4.27e-4 42.23 16 63.345 16h7.93e-4c21.115-4.35e-4 42.23-16 63.345-16h7.93e-4c21.115 4.27e-4 42.23 16 63.345 16h7.93e-4c21.115-4.35e-4 42.23-16 63.345-16h7.93e-4c21.115 4.27e-4 42.23 16 63.345 16v23.167h-7.93e-4c-21.115-3.66e-4 -42.23-16-63.345-16h-7.93e-4c-21.115 4.27e-4 -42.23 16-63.345 16h-7.93e-4c-21.115-3.66e-4 -42.23-16-63.345-16h-7.93e-4c-21.115 4.27e-4 -42.23 16-63.345 16h-7.93e-4c-21.115-3.66e-4 -42.23-16-63.345-16h-7.78e-4c-21.115 4.27e-4 -42.23 16-63.345 16h-7.93e-4c-21.115-3.66e-4 -42.23-16-63.345-16h-8.01e-4c-21.115 4.27e-4 -42.23 16-63.345 16v-23.167" opacity=".8"/>
  <path d="m9.1794 156.96c21.115 0 42.23-16 63.346-16h6.87e-4c21.115 3.66e-4 42.23 16 63.345 16h6.87e-4c21.115-3.66e-4 42.23-16 63.345-16h7.02e-4c21.115 3.66e-4 42.23 16 63.345 16h7.02e-4c21.115-3.66e-4 42.23-16 63.345-16h7.02e-4c21.115 3.66e-4 42.23 16 63.345 16h7.02e-4c21.115-3.66e-4 42.23-16 63.345-16h7.02e-4c21.115 3.66e-4 42.23 16 63.345 16v23.166h-6.71e-4c-21.115-3.66e-4 -42.23-16-63.345-16h-7.02e-4c-21.115 3.66e-4 -42.23 16-63.345 16h-6.71e-4c-21.115-3.66e-4 -42.23-16-63.345-16h-7.02e-4c-21.115 3.66e-4 -42.23 16-63.345 16h-7.02e-4c-21.115-3.66e-4 -42.23-16-63.345-16h-7.02e-4c-21.115 3.66e-4 -42.23 16-63.345 16h-7.02e-4c-21.115-3.66e-4 -42.23-16-63.345-16h-7.17e-4c-21.115 3.66e-4 -42.23 16-63.345 16v-23.166" opacity=".7"/>
  <path d="m9.1794 198.16c21.115 0 42.23-16 63.346-16h6.1e-4c21.115 3.05e-4 42.23 16 63.345 16h5.95e-4c21.115-3.2e-4 42.23-16 63.345-16h6.26e-4c21.115 3.05e-4 42.23 16 63.345 16h6.41e-4c21.115-3.2e-4 42.23-16 63.345-16h6.41e-4c21.115 3.05e-4 42.23 16 63.345 16h6.1e-4c21.115-3.2e-4 42.23-16 63.345-16h6.1e-4c21.115 3.05e-4 42.23 16 63.345 16v23.166h-6.1e-4c-21.115-3.2e-4 -42.23-16-63.345-16h-6.41e-4c-21.115 3.66e-4 -42.23 16-63.345 16h-6.1e-4c-21.115-3.2e-4 -42.23-16-63.345-16h-6.1e-4c-21.115 3.66e-4 -42.23 16-63.345 16h-6.1e-4c-21.115-3.2e-4 -42.23-16-63.345-16h-6.1e-4c-21.115 3.66e-4 -42.23 16-63.345 16h-6.41e-4c-21.115-3.2e-4 -42.23-16-63.345-16h-6.33e-4c-21.115 3.66e-4 -42.23 16-63.345 16v-23.166" opacity=".6"/>
  <path d="m9.1794 239.35c21.115 0 42.23-16 63.346-16h5.19e-4c21.115 3.05e-4 42.23 16 63.345 16h5.19e-4c21.115-3.05e-4 42.23-16 63.345-16h5.34e-4c21.115 3.05e-4 42.23 16 63.345 16h5.49e-4c21.115-3.05e-4 42.23-16 63.345-16h5.49e-4c21.115 3.05e-4 42.23 16 63.345 16h5.19e-4c21.115-3.05e-4 42.23-16 63.345-16h5.19e-4c21.115 3.05e-4 42.23 16 63.345 16v23.166h-5.49e-4c-21.115-2.44e-4 -42.23-16-63.345-16h-5.49e-4c-21.115 2.29e-4 -42.23 16-63.345 16h-5.49e-4c-21.115-2.44e-4 -42.23-16-63.345-16h-5.19e-4c-21.115 2.29e-4 -42.23 16-63.345 16h-5.19e-4c-21.115-2.44e-4 -42.23-16-63.345-16h-5.19e-4c-21.115 2.29e-4 -42.23 16-63.345 16h-5.34e-4c-21.115-2.44e-4 -42.23-16-63.345-16h-5.34e-4c-21.115 2.29e-4 -42.23 16-63.345 16v-23.166" opacity=".5"/>
  <path d="m9.1794 280.54c21.115 0 42.23-16 63.346-16h4.27e-4c21.115 1.83e-4 42.23 16 63.345 16h4.27e-4c21.115-1.83e-4 42.23-16 63.345-16h4.43e-4c21.115 1.83e-4 42.23 16 63.345 16h4.58e-4c21.115-1.83e-4 42.23-16 63.345-16h4.58e-4c21.115 1.83e-4 42.23 16 63.345 16h4.27e-4c21.115-1.83e-4 42.23-16 63.345-16h4.27e-4c21.115 1.83e-4 42.23 16 63.345 16v23.166h-4.27e-4c-21.115-1.53e-4 -42.23-16-63.345-16h-4.58e-4c-21.115 2.44e-4 -42.23 16-63.345 16h-4.58e-4c-21.115-1.53e-4 -42.23-16-63.345-16h-4.27e-4c-21.115 2.44e-4 -42.23 16-63.345 16h-4.27e-4c-21.115-1.53e-4 -42.23-16-63.345-16h-4.27e-4c-21.115 2.44e-4 -42.23 16-63.345 16h-4.43e-4c-21.115-1.53e-4 -42.23-16-63.345-16h-4.5e-4c-21.115 2.44e-4 -42.23 16-63.345 16v-23.166" opacity=".4"/>
  <path d="m9.1794 321.73c21.115 0 42.23-16 63.346-16h3.36e-4c21.115 1.83e-4 42.23 16 63.345 16h3.36e-4c21.115-1.83e-4 42.23-16 63.345-16h3.51e-4c21.115 1.83e-4 42.23 16 63.345 16h3.66e-4c21.115-1.83e-4 42.23-16 63.345-16h3.66e-4c21.115 1.83e-4 42.23 16 63.345 16h3.66e-4c21.115-1.83e-4 42.23-16 63.345-16h3.36e-4c21.115 1.83e-4 42.23 16 63.345 16v23.166h-4.27e-4c-21.115-1.83e-4 -42.23-16-63.345-16h-3.66e-4c-21.115 1.83e-4 -42.23 16-63.345 16h-3.66e-4c-21.115-1.83e-4 -42.23-16-63.345-16h-3.36e-4c-21.115 1.83e-4 -42.23 16-63.345 16h-3.66e-4c-21.115-1.83e-4 -42.23-16-63.345-16h-3.51e-4c-21.115 1.83e-4 -42.23 16-63.345 16h-3.51e-4c-21.115-1.83e-4 -42.23-16-63.345-16h-3.66e-4c-21.115 1.83e-4 -42.23 16-63.345 16v-23.166" opacity=".3"/>
  <path d="m9.1794 362.92c21.115 0 42.23-16 63.346-16h2.37e-4c21.115 1.22e-4 42.23 16 63.345 16h2.59e-4c21.115-1.22e-4 42.23-16 63.345-16h2.59e-4c21.115 1.22e-4 42.23 16 63.345 16h2.75e-4c21.115-1.22e-4 42.23-16 63.345-16h2.75e-4c21.115 1.22e-4 42.23 16 63.345 16h2.44e-4c21.115-1.22e-4 42.23-16 63.345-16h2.44e-4c21.115 1.22e-4 42.23 16 63.345 16v23.166h-2.44e-4c-21.115-1.22e-4 -42.23-16-63.345-16h-2.75e-4c-21.115 1.83e-4 -42.23 16-63.345 16h-2.75e-4c-21.115-1.22e-4 -42.23-16-63.345-16h-2.44e-4c-21.115 1.83e-4 -42.23 16-63.345 16h-2.44e-4c-21.115-1.22e-4 -42.23-16-63.345-16h-2.59e-4c-21.115 1.83e-4 -42.23 16-63.345 16h-2.75e-4c-21.115-1.22e-4 -42.23-16-63.345-16h-2.75e-4c-21.115 1.83e-4 -42.23 16-63.345 16v-23.166" opacity=".2"/>
  <path d="m9.1794 404.12c21.115 0 42.23-16 63.346-16h1.68e-4c21.115 1.22e-4 42.23 16 63.346 16h1.68e-4c21.115-1.22e-4 42.23-16 63.346-16h1.83e-4c21.115 1.22e-4 42.23 16 63.345 16h1.83e-4c21.115-1.22e-4 42.23-16 63.346-16h1.83e-4c21.115 1.22e-4 42.23 16 63.346 16h1.83e-4c21.115-1.22e-4 42.23-16 63.346-16h1.83e-4c21.115 1.22e-4 42.23 16 63.345 16v23.166h-1.83e-4c-21.115-1.22e-4 -42.23-16-63.345-16h-1.83e-4c-21.115 6.1e-5 -42.23 16-63.346 16h-1.83e-4c-21.115-1.22e-4 -42.23-16-63.346-16h-1.83e-4c-21.115 6.1e-5 -42.23 16-63.346 16h-1.83e-4c-21.115-1.22e-4 -42.23-16-63.345-16h-1.68e-4c-21.115 6.1e-5 -42.23 16-63.346 16h-1.83e-4c-21.115-1.22e-4 -42.23-16-63.345-16h-1.75e-4c-21.115 6.1e-5 -42.23 16-63.346 16v-23.166" opacity=".15"/>
  <path d="m9.1794 445.31c21.115 0 42.23-16 63.346-16h7.6e-5c21.115 0 42.23 16 63.346 16h7.6e-5c21.115-6.1e-5 42.23-16 63.346-16h9.2e-5c21.115 0 42.23 16 63.346 16h9.2e-5c21.115-6.1e-5 42.23-16 63.346-16h9.2e-5c21.115 0 42.23 16 63.346 16h9.2e-5c21.115-6.1e-5 42.23-16 63.346-16h9.2e-5c21.115 0 42.23 16 63.346 16v23.166h-6.1e-5c-21.115 0-42.23-16-63.346-16h-9.2e-5c-21.115 6.1e-5 -42.23 16-63.346 16h-9.2e-5c-21.115 0-42.23-16-63.346-16h-9.2e-5c-21.115 6.1e-5 -42.23 16-63.346 16h-9.2e-5c-21.115 0-42.23-16-63.346-16h-9.2e-5c-21.115 6.1e-5 -42.23 16-63.346 16h-9.2e-5c-21.115 0-42.23-16-63.346-16h-1.14e-4c-21.115 6.1e-5 -42.23 16-63.346 16v-23.166" opacity=".1"/>
  <path d="m9.1794 33.388c21.115 0 42.23-16 63.346-16h9.46e-4c21.115 4.9e-4 42.23 16 63.345 16h9.46e-4c21.115-4.88e-4 42.23-16 63.345-16h9.92e-4c21.115 4.9e-4 42.23 16 63.345 16h9.77e-4c21.115-4.88e-4 42.23-16 63.345-16h9.77e-4c21.115 4.9e-4 42.23 16 63.345 16h0.001007c21.115-4.88e-4 42.23-16 63.345-16h9.77e-4c21.115 4.9e-4 42.23 16 63.345 16v23.167h-0.001038c-21.115-5.49e-4 -42.23-16-63.345-16h-9.77e-4c-21.115 4.92e-4 -42.23 16-63.345 16h-9.77e-4c-21.115-5.49e-4 -42.23-16-63.345-16h-9.77e-4c-21.115 4.92e-4 -42.23 16-63.345 16h-9.77e-4c-21.115-5.49e-4 -42.23-16-63.345-16h-9.61e-4c-21.115 4.92e-4 -42.23 16-63.345 16h-9.92e-4c-21.115-5.49e-4 -42.23-16-63.345-16h-9.84e-4c-21.115 4.92e-4 -42.23 16-63.345 16v-23.167"/>
 </g>
</svg>
